<?xml version="1.0" standalone="no"?>
<!DOCTYPE svg PUBLIC "-//W3C//DTD SVG 20010904//EN"
 "http://www.w3.org/TR/2001/REC-SVG-20010904/DTD/svg10.dtd">
<svg version="1.0" xmlns="http://www.w3.org/2000/svg"
 width="512.000000pt" height="512.000000pt" viewBox="0 0 512.000000 512.000000"
 preserveAspectRatio="xMidYMid meet">
<metadata>
Created by potrace 1.14, written by Peter Selinger 2001-2017
</metadata>
<g transform="translate(0.000000,512.000000) scale(0.100000,-0.100000)"
fill="#000000" stroke="none">
<path d="M4129 4266 c-78 -21 -152 -98 -184 -192 -53 -160 -292 -556 -668
-1106 -64 -95 -122 -180 -127 -188 -29 -43 -256 -370 -324 -465 -42 -60 -75
-99 -72 -85 3 14 8 36 10 50 5 28 76 380 130 645 19 94 37 181 40 195 10 47
16 77 46 221 17 79 33 158 36 174 3 17 14 68 24 115 10 47 22 101 25 120 3 19
12 63 20 98 28 119 14 164 -61 208 -54 32 -122 35 -221 12 -34 -9 -65 -13 -68
-10 -3 3 -34 7 -69 8 -50 2 -70 -2 -98 -19 -57 -35 -132 -108 -253 -247 -206
-237 -713 -956 -1001 -1420 -448 -721 -727 -1237 -738 -1363 -8 -87 108 -175
212 -162 15 2 68 9 117 15 50 6 104 16 120 22 45 18 81 64 116 148 86 211 267
529 634 1116 273 435 590 913 600 902 2 -2 -17 -97 -41 -213 -23 -115 -45
-226 -48 -245 -3 -19 -12 -66 -20 -105 -8 -38 -17 -83 -20 -100 -3 -16 -8 -41
-11 -55 -2 -14 -14 -74 -25 -135 -12 -60 -25 -130 -30 -155 -6 -25 -12 -60
-15 -77 -8 -52 -13 -82 -30 -163 -2 -14 -7 -41 -10 -60 -4 -19 -10 -53 -15
-75 -4 -22 -11 -60 -14 -85 -3 -25 -8 -56 -11 -70 -2 -13 -7 -40 -10 -60 -3
-20 -7 -45 -9 -56 -5 -22 -14 -92 -26 -189 -15 -124 26 -190 140 -226 94 -30
221 -34 274 -9 51 23 59 30 122 105 105 125 471 606 564 742 8 12 85 120 171
240 86 120 171 241 190 268 18 28 36 52 39 55 4 3 25 32 46 65 22 33 121 182
220 330 99 149 197 297 218 330 21 33 62 98 92 145 106 166 245 400 308 522
95 181 123 263 117 345 -2 30 -46 80 -90 102 -79 40 -239 58 -322 37z"/>
</g>
</svg>
